<mxfile host="Electron" agent="Mozilla/5.0 (Windows NT 10.0; Win64; x64) AppleWebKit/537.36 (KHTML, like Gecko) draw.io/26.2.2 Chrome/134.0.6998.178 Electron/35.1.2 Safari/537.36" version="26.2.2">
  <diagram name="Страница — 1" id="7e3G5Z6yJVBOaqM1CV3b">
    <mxGraphModel dx="3207" dy="1415" grid="1" gridSize="10" guides="1" tooltips="1" connect="1" arrows="1" fold="1" page="1" pageScale="1" pageWidth="827" pageHeight="1169" math="0" shadow="0">
      <root>
        <mxCell id="0" />
        <mxCell id="1" parent="0" />
        <mxCell id="foYq9AnWjgYfGTagtAil-32" value="&lt;div style=&quot;box-sizing:border-box;width:100%;background:#e4e4e4;padding:2px;&quot;&gt;Фография&lt;table style=&quot;background-color: transparent; color: light-dark(rgb(0, 0, 0), rgb(255, 255, 255)); font-size: 1em; width: 100%;&quot; cellpadding=&quot;2&quot; cellspacing=&quot;0&quot;&gt;&lt;tbody&gt;&lt;tr&gt;&lt;td&gt;PK&lt;/td&gt;&lt;td&gt;Код&lt;/td&gt;&lt;/tr&gt;&lt;tr&gt;&lt;td&gt;FK&lt;/td&gt;&lt;td&gt;Код предмета&lt;/td&gt;&lt;/tr&gt;&lt;tr&gt;&lt;td&gt;&lt;/td&gt;&lt;td&gt;Фото&lt;/td&gt;&lt;/tr&gt;&lt;/tbody&gt;&lt;/table&gt;&lt;/div&gt;" style="verticalAlign=top;align=left;overflow=fill;html=1;whiteSpace=wrap;" parent="1" vertex="1">
          <mxGeometry x="-556" y="400" width="180" height="70" as="geometry" />
        </mxCell>
        <mxCell id="foYq9AnWjgYfGTagtAil-33" value="&lt;div style=&quot;box-sizing:border-box;width:100%;background:#e4e4e4;padding:2px;&quot;&gt;Предмет&lt;table style=&quot;background-color: transparent; color: light-dark(rgb(0, 0, 0), rgb(255, 255, 255)); font-size: 1em; width: 100%;&quot; cellpadding=&quot;2&quot; cellspacing=&quot;0&quot;&gt;&lt;tbody&gt;&lt;tr&gt;&lt;td&gt;PK&lt;/td&gt;&lt;td&gt;Код&lt;/td&gt;&lt;/tr&gt;&lt;tr&gt;&lt;td&gt;&lt;br&gt;&lt;/td&gt;&lt;td&gt;Название&lt;/td&gt;&lt;/tr&gt;&lt;tr&gt;&lt;td&gt;&lt;/td&gt;&lt;td&gt;Опубликован&lt;br&gt;Цена&lt;br&gt;Количество&lt;br&gt;Фото&lt;br&gt;Файл&lt;br&gt;Дата начала&lt;br&gt;Время начала&lt;br&gt;Описание&lt;/td&gt;&lt;/tr&gt;&lt;/tbody&gt;&lt;/table&gt;&lt;/div&gt;" style="verticalAlign=top;align=left;overflow=fill;html=1;whiteSpace=wrap;" parent="1" vertex="1">
          <mxGeometry x="-286" y="350" width="180" height="170" as="geometry" />
        </mxCell>
        <mxCell id="foYq9AnWjgYfGTagtAil-34" value="&lt;div style=&quot;box-sizing:border-box;width:100%;background:#e4e4e4;padding:2px;&quot;&gt;ПользовательПредметы&lt;table style=&quot;background-color: transparent; color: light-dark(rgb(0, 0, 0), rgb(255, 255, 255)); font-size: 1em; width: 100%;&quot; cellpadding=&quot;2&quot; cellspacing=&quot;0&quot;&gt;&lt;tbody&gt;&lt;tr&gt;&lt;td&gt;PK&lt;/td&gt;&lt;td&gt;Код&lt;/td&gt;&lt;/tr&gt;&lt;tr&gt;&lt;td&gt;&lt;br&gt;&lt;/td&gt;&lt;td&gt;Код пользователя&lt;br&gt;Код предмета&lt;/td&gt;&lt;/tr&gt;&lt;/tbody&gt;&lt;/table&gt;&lt;/div&gt;" style="verticalAlign=top;align=left;overflow=fill;html=1;whiteSpace=wrap;" parent="1" vertex="1">
          <mxGeometry x="-56" y="240" width="180" height="70" as="geometry" />
        </mxCell>
        <mxCell id="foYq9AnWjgYfGTagtAil-35" value="&lt;div style=&quot;box-sizing:border-box;width:100%;background:#e4e4e4;padding:2px;&quot;&gt;Роль&lt;table style=&quot;background-color: transparent; color: light-dark(rgb(0, 0, 0), rgb(255, 255, 255)); font-size: 1em; width: 100%;&quot; cellpadding=&quot;2&quot; cellspacing=&quot;0&quot;&gt;&lt;tbody&gt;&lt;tr&gt;&lt;td&gt;PK&lt;/td&gt;&lt;td&gt;Код&lt;/td&gt;&lt;/tr&gt;&lt;tr&gt;&lt;td&gt;&lt;br&gt;&lt;/td&gt;&lt;td&gt;Название&lt;/td&gt;&lt;/tr&gt;&lt;tr&gt;&lt;td&gt;&lt;/td&gt;&lt;td&gt;&lt;br&gt;&lt;/td&gt;&lt;/tr&gt;&lt;/tbody&gt;&lt;/table&gt;&lt;/div&gt;" style="verticalAlign=top;align=left;overflow=fill;html=1;whiteSpace=wrap;" parent="1" vertex="1">
          <mxGeometry x="14" y="525" width="180" height="50" as="geometry" />
        </mxCell>
        <mxCell id="foYq9AnWjgYfGTagtAil-36" value="&lt;div style=&quot;box-sizing:border-box;width:100%;background:#e4e4e4;padding:2px;&quot;&gt;Пользователь&lt;table style=&quot;background-color: transparent; color: light-dark(rgb(0, 0, 0), rgb(255, 255, 255)); font-size: 1em; width: 100%;&quot; cellpadding=&quot;2&quot; cellspacing=&quot;0&quot;&gt;&lt;tbody&gt;&lt;tr&gt;&lt;td&gt;PK&lt;/td&gt;&lt;td&gt;Код&lt;/td&gt;&lt;/tr&gt;&lt;tr&gt;&lt;td&gt;&lt;br&gt;&lt;/td&gt;&lt;td&gt;Имя&lt;/td&gt;&lt;/tr&gt;&lt;tr&gt;&lt;td&gt;&lt;br&gt;&lt;br&gt;FK&lt;br&gt;FK&lt;br&gt;&lt;br&gt;&lt;/td&gt;&lt;td&gt;Логин&lt;br&gt;Пароль&lt;br&gt;Код роли&lt;br&gt;Код руководителя&lt;br&gt;&lt;br&gt;&lt;/td&gt;&lt;/tr&gt;&lt;/tbody&gt;&lt;/table&gt;&lt;/div&gt;" style="verticalAlign=top;align=left;overflow=fill;html=1;whiteSpace=wrap;" parent="1" vertex="1">
          <mxGeometry x="234" y="380" width="180" height="120" as="geometry" />
        </mxCell>
        <mxCell id="foYq9AnWjgYfGTagtAil-47" value="" style="endArrow=block;startArrow=block;endFill=1;startFill=1;html=1;rounded=0;entryX=-0.01;entryY=0.204;entryDx=0;entryDy=0;entryPerimeter=0;" parent="1" source="foYq9AnWjgYfGTagtAil-34" target="foYq9AnWjgYfGTagtAil-36" edge="1">
          <mxGeometry width="160" relative="1" as="geometry">
            <mxPoint x="-66" y="400" as="sourcePoint" />
            <mxPoint x="94" y="400" as="targetPoint" />
            <Array as="points">
              <mxPoint x="194" y="275" />
              <mxPoint x="194" y="404" />
            </Array>
          </mxGeometry>
        </mxCell>
        <mxCell id="foYq9AnWjgYfGTagtAil-63" value="1" style="edgeLabel;html=1;align=center;verticalAlign=middle;resizable=0;points=[];" parent="foYq9AnWjgYfGTagtAil-47" vertex="1" connectable="0">
          <mxGeometry x="-0.9444" y="-2" relative="1" as="geometry">
            <mxPoint x="6" y="10" as="offset" />
          </mxGeometry>
        </mxCell>
        <mxCell id="foYq9AnWjgYfGTagtAil-49" value="" style="endArrow=block;startArrow=block;endFill=1;startFill=1;html=1;rounded=0;entryX=1.003;entryY=0.132;entryDx=0;entryDy=0;entryPerimeter=0;exitX=-0.013;exitY=0.841;exitDx=0;exitDy=0;exitPerimeter=0;" parent="1" source="foYq9AnWjgYfGTagtAil-34" target="foYq9AnWjgYfGTagtAil-33" edge="1">
          <mxGeometry width="160" relative="1" as="geometry">
            <mxPoint x="-164" y="310" as="sourcePoint" />
            <mxPoint x="-56" y="439" as="targetPoint" />
            <Array as="points">
              <mxPoint x="-86" y="299" />
              <mxPoint x="-86" y="372" />
            </Array>
          </mxGeometry>
        </mxCell>
        <mxCell id="foYq9AnWjgYfGTagtAil-64" value="1" style="edgeLabel;html=1;align=center;verticalAlign=middle;resizable=0;points=[];" parent="foYq9AnWjgYfGTagtAil-49" vertex="1" connectable="0">
          <mxGeometry x="-0.8828" relative="1" as="geometry">
            <mxPoint y="11" as="offset" />
          </mxGeometry>
        </mxCell>
        <mxCell id="foYq9AnWjgYfGTagtAil-65" value="1" style="edgeLabel;html=1;align=center;verticalAlign=middle;resizable=0;points=[];" parent="foYq9AnWjgYfGTagtAil-49" vertex="1" connectable="0">
          <mxGeometry x="0.7691" y="1" relative="1" as="geometry">
            <mxPoint y="7" as="offset" />
          </mxGeometry>
        </mxCell>
        <mxCell id="foYq9AnWjgYfGTagtAil-50" value="" style="endArrow=block;startArrow=block;endFill=1;startFill=1;html=1;rounded=0;entryX=0;entryY=0.75;entryDx=0;entryDy=0;exitX=1;exitY=0.5;exitDx=0;exitDy=0;" parent="1" source="foYq9AnWjgYfGTagtAil-35" target="foYq9AnWjgYfGTagtAil-36" edge="1">
          <mxGeometry width="160" relative="1" as="geometry">
            <mxPoint x="-154" y="320" as="sourcePoint" />
            <mxPoint x="-46" y="449" as="targetPoint" />
            <Array as="points">
              <mxPoint x="214" y="550" />
              <mxPoint x="214" y="470" />
            </Array>
          </mxGeometry>
        </mxCell>
        <mxCell id="foYq9AnWjgYfGTagtAil-60" value="0.." style="edgeLabel;html=1;align=center;verticalAlign=middle;resizable=0;points=[];" parent="foYq9AnWjgYfGTagtAil-50" vertex="1" connectable="0">
          <mxGeometry x="0.8952" y="-3" relative="1" as="geometry">
            <mxPoint x="-4" y="7" as="offset" />
          </mxGeometry>
        </mxCell>
        <mxCell id="foYq9AnWjgYfGTagtAil-61" value="1" style="edgeLabel;html=1;align=center;verticalAlign=middle;resizable=0;points=[];" parent="foYq9AnWjgYfGTagtAil-50" vertex="1" connectable="0">
          <mxGeometry x="-0.9073" y="-1" relative="1" as="geometry">
            <mxPoint x="4" y="9" as="offset" />
          </mxGeometry>
        </mxCell>
        <mxCell id="foYq9AnWjgYfGTagtAil-62" value="1" style="text;html=1;align=center;verticalAlign=middle;resizable=0;points=[];autosize=1;strokeColor=none;fillColor=none;" parent="1" vertex="1">
          <mxGeometry x="204" y="400" width="30" height="30" as="geometry" />
        </mxCell>
        <mxCell id="foYq9AnWjgYfGTagtAil-66" value="" style="endArrow=block;startArrow=block;endFill=1;startFill=1;html=1;rounded=0;entryX=1.003;entryY=0.132;entryDx=0;entryDy=0;entryPerimeter=0;exitX=-0.002;exitY=0.153;exitDx=0;exitDy=0;exitPerimeter=0;" parent="1" source="foYq9AnWjgYfGTagtAil-33" edge="1">
          <mxGeometry width="160" relative="1" as="geometry">
            <mxPoint x="-329" y="370" as="sourcePoint" />
            <mxPoint x="-376" y="443" as="targetPoint" />
            <Array as="points">
              <mxPoint x="-316" y="376" />
              <mxPoint x="-356" y="376" />
              <mxPoint x="-356" y="443" />
            </Array>
          </mxGeometry>
        </mxCell>
        <mxCell id="foYq9AnWjgYfGTagtAil-67" value="1" style="edgeLabel;html=1;align=center;verticalAlign=middle;resizable=0;points=[];" parent="foYq9AnWjgYfGTagtAil-66" vertex="1" connectable="0">
          <mxGeometry x="-0.8828" relative="1" as="geometry">
            <mxPoint y="11" as="offset" />
          </mxGeometry>
        </mxCell>
        <mxCell id="foYq9AnWjgYfGTagtAil-68" value="0.." style="edgeLabel;html=1;align=center;verticalAlign=middle;resizable=0;points=[];" parent="foYq9AnWjgYfGTagtAil-66" vertex="1" connectable="0">
          <mxGeometry x="0.7691" y="1" relative="1" as="geometry">
            <mxPoint y="7" as="offset" />
          </mxGeometry>
        </mxCell>
      </root>
    </mxGraphModel>
  </diagram>
</mxfile>
